<?xml version="1.0" encoding="UTF-8" standalone="no"?> <!-- Created with Inkscape (http://www.inkscape.org/) --> <svg xmlns="http://www.w3.org/2000/svg" xmlns:svg="http://www.w3.org/2000/svg" width="178.71349mm" height="29.009447mm" viewBox="0 0 178.71349 29.009447" version="1.1" id="svg31383"><defs id="defs31380"></defs><g id="layer1" transform="translate(89.356778,-144.11559)"><path d="m -62.898445,150.77188 c 0,-2.98583 -2.420432,-5.40627 -5.406265,-5.40627 -2.970935,0 -5.380125,2.39735 -5.403826,5.36252 l -4.36177,0.58331 c -0.547159,-1.67611 -2.120279,-2.888 -3.978672,-2.888 -2.311673,0 -4.186169,1.87419 -4.186169,4.18617 0,1.85353 1.205812,3.423 2.874933,3.97351 l -0.615214,4.48025 c -2.974583,0.0138 -5.38135,2.42773 -5.38135,5.40505 0,2.98583 2.420438,5.40657 5.406266,5.40657 2.979444,0 5.394412,-2.41041 5.405048,-5.38682 l 5.048684,-0.69785 c 0.552313,1.66639 2.120281,2.87007 3.971991,2.87007 2.311673,0 4.186161,-1.87419 4.186161,-4.18616 0,-1.92281 -1.298178,-3.53876 -3.06482,-4.02972 l 0.38099,-4.28035 c 2.854275,-0.14796 5.124013,-2.50186 5.124013,-5.39228 z m -10.803114,13.51307 -5.055055,0.69907 c -0.511607,-1.79217 -1.921886,-3.20123 -3.714655,-3.71133 l 0.615206,-4.48633 c 2.152179,-0.0987 3.876596,-1.81829 3.982014,-3.96864 l 4.368464,-0.58423 c 0.528614,1.88544 2.051301,3.35101 3.969554,3.79852 l -0.380981,4.27548 c -2.064978,0.19201 -3.690057,1.88453 -3.784547,3.97746 z" id="path2" style="fill:#0482d8;fill-opacity:1;stroke-width:0.303808"></path><g aria-label="Soapbox" id="text868-3" style="font-size:30.993px;line-height:1.25;font-family:Roboto;-inkscape-font-specification:Roboto;letter-spacing:0px;word-spacing:0px;fill:#0482d8;stroke-width:0.645687"><path d="m -45.741619,167.60828 q -2.727384,0 -5.26881,-0.61986 -2.541426,-0.61986 -4.184055,-1.61163 l 2.355468,-5.3308 q 1.54965,0.8988 3.440223,1.45667 1.921566,0.52688 3.71916,0.52688 1.053762,0 1.642629,-0.12397 0.61986,-0.15496 0.898797,-0.40291 0.278937,-0.27893 0.278937,-0.65085 0,-0.58887 -0.650853,-0.92979 -0.650853,-0.34092 -1.735608,-0.55787 -1.053762,-0.24795 -2.324475,-0.49589 -1.270713,-0.27894 -2.572419,-0.71284 -1.270713,-0.4339 -2.355468,-1.14674 -1.053762,-0.71284 -1.704615,-1.85958 -0.650853,-1.17774 -0.650853,-2.91334 0,-2.01455 1.115748,-3.65718 1.146741,-1.67362 3.378237,-2.6654 2.262489,-0.99177 5.609733,-0.99177 2.200503,0 4.33902,0.46489 2.138517,0.4649 3.843132,1.42568 l -2.200503,5.2998 q -1.611636,-0.80581 -3.130293,-1.20872 -1.487664,-0.40291 -2.913342,-0.40291 -1.053762,0 -1.673622,0.18596 -0.61986,0.18595 -0.898797,0.49588 -0.247944,0.30993 -0.247944,0.68185 0,0.55787 0.650853,0.8988 0.650853,0.30993 1.704615,0.52688 1.084755,0.21695 2.355468,0.46489 1.301706,0.24795 2.572419,0.68185 1.270713,0.4339 2.324475,1.14674 1.084755,0.71284 1.735608,1.85958 0.650853,1.14674 0.650853,2.85136 0,1.98355 -1.146741,3.65717 -1.115748,1.64263 -3.347244,2.6654 -2.231496,0.99177 -5.609733,0.99177 z" style="font-weight:900;font-family:Montserrat;-inkscape-font-specification:'Montserrat Heavy';text-align:center;text-anchor:middle" id="path8019"></path><path d="m -24.728377,167.42233 q -2.882349,0 -5.113845,-1.11575 -2.200503,-1.14674 -3.471216,-3.13029 -1.270713,-1.98356 -1.270713,-4.55598 0,-2.57241 1.270713,-4.55597 1.270713,-1.98355 3.471216,-3.0993 2.231496,-1.11574 5.113845,-1.11574 2.882349,0 5.113845,1.11574 2.231496,1.11575 3.471216,3.0993 1.270713,1.98356 1.270713,4.55597 0,2.57242 -1.270713,4.55598 -1.23972,1.98355 -3.471216,3.13029 -2.231496,1.11575 -5.113845,1.11575 z m 0,-5.45477 q 0.774825,0 1.394685,-0.37192 0.61986,-0.37191 0.991776,-1.11575 0.371916,-0.77482 0.371916,-1.85958 0,-1.11574 -0.371916,-1.82858 -0.371916,-0.74383 -0.991776,-1.11575 -0.61986,-0.37192 -1.394685,-0.37192 -0.774825,0 -1.394685,0.37192 -0.61986,0.37192 -0.991776,1.11575 -0.371916,0.71284 -0.371916,1.82858 0,1.08476 0.371916,1.85958 0.371916,0.74384 0.991776,1.11575 0.61986,0.37192 1.394685,0.37192 z" style="font-weight:900;font-family:Montserrat;-inkscape-font-specification:'Montserrat Heavy';text-align:center;text-anchor:middle" id="path8021"></path><path d="m -2.8473328,167.1124 v -3.00632 l -0.495888,-0.80582 v -5.70271 q 0,-1.23972 -0.774825,-1.89058 -0.743832,-0.65085 -2.448447,-0.65085 -1.146741,0 -2.324475,0.37192 -1.1777342,0.34092 -2.0145452,0.96078 l -2.231496,-4.61796 q 1.487664,-0.92979 3.5641952,-1.42568 2.076531,-0.49588 4.060083,-0.49588 4.370013,0 6.756474,1.95255 2.417454,1.95256 2.417454,6.1986 v 9.11195 z m -4.803915,0.30993 q -2.076531,0 -3.4712162,-0.71284 -1.394685,-0.71284 -2.107524,-1.89058 -0.712839,-1.20872 -0.712839,-2.66539 0,-1.64263 0.836811,-2.78937 0.836811,-1.14674 2.541426,-1.73561 1.7356082,-0.58887 4.3700132,-0.58887 h 3.533202 v 3.37824 h -2.417454 q -1.115748,0 -1.642629,0.37191 -0.495888,0.34093 -0.495888,1.05377 0,0.58886 0.433902,0.99177 0.464895,0.37192 1.23972,0.37192 0.712839,0 1.301706,-0.37192 0.61986,-0.40291 0.898797,-1.23972 l 0.898797,2.07653 q -0.402909,1.89058 -1.704615,2.82037 -1.301706,0.92979 -3.502209,0.92979 z" style="font-weight:900;font-family:Montserrat;-inkscape-font-specification:'Montserrat Heavy';text-align:center;text-anchor:middle" id="path8023"></path><path d="m 18.010956,167.42233 q -2.200503,0 -3.657174,-0.92979 -1.425678,-0.96079 -2.107524,-2.88235 -0.681846,-1.95256 -0.681846,-4.95888 0,-3.06831 0.61986,-4.98988 0.650853,-1.95255 2.076531,-2.88234 1.425678,-0.92979 3.750153,-0.92979 2.231496,0 4.091076,1.08475 1.85958,1.05376 2.975328,3.03731 1.115748,1.95256 1.115748,4.67995 0,2.72738 -1.115748,4.71093 -1.115748,1.95256 -2.975328,3.00632 -1.85958,1.05377 -4.091076,1.05377 z m -11.3124446,5.70271 v -22.96581 h 6.6634946 v 2.29348 l 0.03099,6.1986 0.30993,6.1986 v 8.27513 z m 9.6388226,-11.15748 q 0.774825,0 1.394685,-0.37192 0.61986,-0.37191 0.991776,-1.11575 0.371916,-0.74383 0.371916,-1.82858 0,-1.11575 -0.371916,-1.85958 -0.371916,-0.74383 -0.991776,-1.11575 -0.61986,-0.37192 -1.394685,-0.37192 -0.774825,0 -1.394685,0.37192 -0.61986,0.37192 -0.991776,1.11575 -0.371916,0.74383 -0.371916,1.85958 0,1.08475 0.371916,1.82858 0.371916,0.74384 0.991776,1.11575 0.61986,0.37192 1.394685,0.37192 z" style="font-weight:900;font-family:Montserrat;-inkscape-font-specification:'Montserrat Heavy';text-align:center;text-anchor:middle" id="path8025"></path><path d="m 39.706017,167.42233 q -2.324475,0 -3.750153,-0.92979 -1.425678,-0.92979 -2.076531,-2.88235 -0.61986,-1.95256 -0.61986,-4.98988 0,-3.00632 0.681846,-4.92788 0.681846,-1.95256 2.107524,-2.88235 1.456671,-0.96078 3.657174,-0.96078 2.231496,0 4.091076,1.05376 1.85958,1.05376 2.975328,3.03731 1.115748,1.95256 1.115748,4.67994 0,2.72739 -1.115748,4.71094 -1.115748,1.95256 -2.975328,3.03731 -1.85958,1.05377 -4.091076,1.05377 z M 28.393572,167.1124 v -22.99681 h 7.004418 v 8.30612 l -0.30993,6.1986 -0.03099,6.1986 v 2.29349 z m 9.638823,-5.14484 q 0.774825,0 1.394685,-0.37192 0.61986,-0.37191 0.991776,-1.11575 0.371916,-0.77482 0.371916,-1.85958 0,-1.11574 -0.371916,-1.82858 -0.371916,-0.74383 -0.991776,-1.11575 -0.61986,-0.37192 -1.394685,-0.37192 -0.774825,0 -1.394685,0.37192 -0.61986,0.37192 -0.991776,1.11575 -0.371916,0.71284 -0.371916,1.82858 0,1.08476 0.371916,1.85958 0.371916,0.74384 0.991776,1.11575 0.61986,0.37192 1.394685,0.37192 z" style="font-weight:900;font-family:Montserrat;-inkscape-font-specification:'Montserrat Heavy';text-align:center;text-anchor:middle" id="path8027"></path><path d="m 59.045618,167.42233 q -2.882349,0 -5.113845,-1.11575 -2.200503,-1.14674 -3.471216,-3.13029 -1.270713,-1.98356 -1.270713,-4.55598 0,-2.57241 1.270713,-4.55597 1.270713,-1.98355 3.471216,-3.0993 2.231496,-1.11574 5.113845,-1.11574 2.882349,0 5.113845,1.11574 2.231496,1.11575 3.471216,3.0993 1.270713,1.98356 1.270713,4.55597 0,2.57242 -1.270713,4.55598 -1.23972,1.98355 -3.471216,3.13029 -2.231496,1.11575 -5.113845,1.11575 z m 0,-5.45477 q 0.774825,0 1.394685,-0.37192 0.61986,-0.37191 0.991776,-1.11575 0.371916,-0.77482 0.371916,-1.85958 0,-1.11574 -0.371916,-1.82858 -0.371916,-0.74383 -0.991776,-1.11575 -0.61986,-0.37192 -1.394685,-0.37192 -0.774825,0 -1.394685,0.37192 -0.61986,0.37192 -0.991776,1.11575 -0.371916,0.71284 -0.371916,1.82858 0,1.08476 0.371916,1.85958 0.371916,0.74384 0.991776,1.11575 0.61986,0.37192 1.394685,0.37192 z" style="font-weight:900;font-family:Montserrat;-inkscape-font-specification:'Montserrat Heavy';text-align:center;text-anchor:middle" id="path8029"></path><path d="m 68.808355,167.1124 7.996194,-10.47564 -0.185958,4.02909 -7.624278,-10.50662 h 7.903215 l 3.750153,5.60973 -2.913342,0.21695 4.122069,-5.82668 h 7.345341 l -7.655271,10.1657 v -3.87413 l 7.810236,10.6616 h -8.027187 l -3.874125,-5.98165 2.944335,0.40291 -3.998097,5.57874 z" style="font-weight:900;font-family:Montserrat;-inkscape-font-specification:'Montserrat Heavy';text-align:center;text-anchor:middle" id="path8031"></path></g></g></svg> 